<svg xmlns="http://www.w3.org/2000/svg" viewBox="0 0 64 64" role="img" aria-label="Canva">
  <defs>
    <linearGradient id="canvaGradient" x1="8" x2="56" y1="56" y2="8" gradientUnits="userSpaceOnUse">
      <stop stop-color="#00c4cc"/>
      <stop offset=".52" stop-color="#7d2ae8"/>
      <stop offset="1" stop-color="#ff66c4"/>
    </linearGradient>
  </defs>
  <circle cx="32" cy="32" r="30" fill="url(#canvaGradient)"/>
  <path fill="#fff" d="M43.8 39.2c-2.5 6.4-7.2 10.2-13.5 10.2-8.1 0-14.1-6.5-14.1-15.9 0-10.4 7.5-19.2 17-19.2 6.4 0 10.7 3.8 11.8 9.5l-8.4 2c-.5-2.3-1.8-3.7-4-3.7-4.5 0-7.6 5.1-7.6 10.9 0 4.8 2.5 8.1 6.1 8.1 2.4 0 4.2-1.6 5.4-4.5l7.3 2.6Z"/>
</svg>
