<svg xmlns="http://www.w3.org/2000/svg" viewBox="0 0 64 64" role="img" aria-label="ChatGPT">
  <circle cx="32" cy="32" r="30" fill="#0f1716"/>
  <g fill="none" stroke="#f7fbff" stroke-width="4.3" stroke-linecap="round" stroke-linejoin="round">
    <path d="M31.8 8.8c7.2 0 11.3 5.3 11.3 10.4 5.6 2 8.1 7.7 5.3 12.7 2.8 5 .3 10.8-5.2 12.8-.4 6.1-6.1 10.6-12.1 9.2-3.7 4.7-10.4 4.8-14.4.4-6 .1-10.1-5.4-9.2-11.2-4.6-3.4-4.6-10.3 0-13.8-.9-5.9 3.3-11.4 9.3-11.3 3-5.7 9.4-7.2 15-9.2Z"/>
    <path d="M21 19.4 37 28.6v18.2"/>
    <path d="M43.1 19.2 27 28.6 11.3 19.5"/>
    <path d="M48.4 31.8 32 41.2 16.2 32"/>
    <path d="M43.2 44.7 27.1 35.4V17.2"/>
  </g>
</svg>
