<svg xmlns="http://www.w3.org/2000/svg" viewBox="0 0 64 64" role="img" aria-label="Google">
  <circle cx="32" cy="32" r="30" fill="#ffffff"/>
  <path fill="#4285f4" d="M54 32.7c0-1.6-.1-2.8-.4-4.1H32v8.2h12.7c-.5 3.2-2.9 5.9-6.1 7.5v6h7.7C50.9 46.1 54 39.8 54 32.7Z"/>
  <path fill="#34a853" d="M32 55c6.2 0 11.4-2 15.2-5.5l-7.7-6c-2.1 1.4-4.8 2.3-7.5 2.3-5.8 0-10.7-3.9-12.4-9.2h-8v6.2C15.4 50.1 23.1 55 32 55Z"/>
  <path fill="#fbbc05" d="M19.6 36.6c-.5-1.4-.8-2.9-.8-4.6s.3-3.2.8-4.6v-6.2h-8C10 24.4 9 28.1 9 32s1 7.6 2.6 10.8l8-6.2Z"/>
  <path fill="#ea4335" d="M32 18.2c3.4 0 6.4 1.2 8.8 3.5l6.6-6.6C43.4 11.3 38.2 9 32 9c-8.9 0-16.6 4.9-20.4 12.2l8 6.2c1.7-5.3 6.6-9.2 12.4-9.2Z"/>
</svg>
